<svg width="127" height="32" viewBox="0 0 127 32" fill="none" xmlns="http://www.w3.org/2000/svg">
<path d="M49.076 27.0188H39.3787C38.9661 27.0188 38.7598 26.8125 38.7598 26.3998V8.68533C38.7598 8.27268 38.9661 8.06635 39.3787 8.06635H41.8841C42.2968 8.06635 42.5031 8.27268 42.5031 8.68533V23.4229C42.5031 23.639 42.621 23.7471 42.8568 23.7471H49.076C49.469 23.7471 49.6655 23.9632 49.6655 24.3955V26.3998C49.6655 26.8125 49.469 27.0188 49.076 27.0188Z" fill="#1A9C73"/>
<path d="M62.7884 27.0188H56.2744C54.722 27.0188 53.5234 26.6062 52.6784 25.7809C51.8335 24.9556 51.411 23.7667 51.411 22.2144V16.791C51.411 15.2386 51.8335 14.0498 52.6784 13.2245C53.5234 12.3992 54.722 11.9865 56.2744 11.9865H58.6029C60.1553 11.9865 61.3539 12.3992 62.1989 13.2245C63.0438 14.0498 63.4663 15.2386 63.4663 16.791V20.5343C63.4663 20.947 63.26 21.1533 62.8473 21.1533H55.4491C55.2133 21.1533 55.0954 21.2614 55.0954 21.4775V22.126C55.0954 22.7351 55.2231 23.1772 55.4786 23.4523C55.7537 23.7078 56.2056 23.8355 56.8344 23.8355H62.7884C63.201 23.8355 63.4074 24.0517 63.4074 24.484V26.4293C63.4074 26.6455 63.3582 26.8027 63.26 26.9009C63.1814 26.9795 63.0242 27.0188 62.7884 27.0188ZM55.4491 18.6479H59.4577C59.6739 18.6479 59.7819 18.5398 59.7819 18.3237V16.9089C59.7819 16.2801 59.6542 15.8379 59.3988 15.5825C59.1433 15.327 58.7012 15.1993 58.0724 15.1993H56.8344C56.2056 15.1993 55.7635 15.327 55.508 15.5825C55.2526 15.8379 55.1249 16.2801 55.1249 16.9089V18.3237C55.1249 18.5398 55.2329 18.6479 55.4491 18.6479Z" fill="#1A9C73"/>
<path d="M71.5466 27.0188H70.8392C69.2869 27.0188 68.0882 26.6062 67.2433 25.7809C66.3983 24.9556 65.9758 23.7667 65.9758 22.2144V16.791C65.9758 15.2386 66.3983 14.0498 67.2433 13.2245C68.0882 12.3992 69.2869 11.9865 70.8392 11.9865H77.648C78.0803 11.9865 78.2964 12.1929 78.2964 12.6055V26.3998C78.2964 26.8125 78.0803 27.0188 77.648 27.0188H75.1721C74.7594 27.0188 74.5531 26.8125 74.5531 26.3998V25.4272H74.4352C74.219 25.9577 73.8358 26.3605 73.2856 26.6356C72.7354 26.8911 72.1558 27.0188 71.5466 27.0188ZM74.5531 21.5365V15.553C74.5531 15.3369 74.4352 15.2288 74.1994 15.2288H71.4287C70.7999 15.2288 70.3578 15.3663 70.1023 15.6414C69.8469 15.8969 69.7192 16.339 69.7192 16.9678V22.0375C69.7192 22.6663 69.8469 23.1183 70.1023 23.3934C70.3578 23.6488 70.7999 23.7766 71.4287 23.7766H72.5193C73.8751 23.7766 74.5531 23.0299 74.5531 21.5365Z" fill="#1A9C73"/>
<path d="M84.6506 27.0188H82.1452C81.7326 27.0188 81.5262 26.8125 81.5262 26.3998V12.6055C81.5262 12.1929 81.7326 11.9865 82.1452 11.9865H84.6506C85.0632 11.9865 85.2696 12.1929 85.2696 12.6055V13.6077H85.3875C85.6036 13.0771 85.9868 12.6743 86.537 12.3992C87.0872 12.1241 87.6669 11.9865 88.276 11.9865H89.3371C89.7301 11.9865 89.9266 12.1929 89.9266 12.6055V14.6393C89.9266 14.8751 89.8775 15.0421 89.7792 15.1404C89.7006 15.219 89.5533 15.2484 89.3371 15.2288H87.3033C85.9475 15.2288 85.2696 15.9951 85.2696 17.5278V26.3998C85.2696 26.8125 85.0632 27.0188 84.6506 27.0188Z" fill="#1A9C73"/>
<path d="M94.9266 27.0188H92.4212C92.0085 27.0188 91.8022 26.8125 91.8022 26.3998V12.6055C91.8022 12.1929 92.0085 11.9865 92.4212 11.9865H94.9266C95.3392 11.9865 95.5455 12.1929 95.5455 12.6055V13.5782H95.6634C96.0957 12.5171 97.0586 11.9865 98.552 11.9865H99.4952C102.58 11.9865 104.123 13.588 104.123 16.791V26.3998C104.123 26.8125 103.907 27.0188 103.474 27.0188H100.998C100.586 27.0188 100.379 26.8125 100.379 26.3998V16.9678C100.379 16.339 100.242 15.8969 99.9668 15.6414C99.7113 15.3663 99.2692 15.2288 98.6404 15.2288H97.5793C96.2235 15.2288 95.5455 15.9755 95.5455 17.4689V26.3998C95.5455 26.8125 95.3392 27.0188 94.9266 27.0188Z" fill="#1A9C73"/>
<path d="M110.502 27.0188H107.997C107.584 27.0188 107.378 26.8125 107.378 26.3998V6.91683C107.378 6.50418 107.584 6.29785 107.997 6.29785H110.502C110.915 6.29785 111.121 6.50418 111.121 6.91683V26.3998C111.121 26.8125 110.915 27.0188 110.502 27.0188Z" fill="#1A9C73"/>
<path d="M116.959 32.0001H115.073C114.68 32.0001 114.483 31.7839 114.483 31.3516V29.3768C114.483 28.9445 114.68 28.7284 115.073 28.7284H115.692C116.93 28.7284 117.765 28.5515 118.197 28.1978C118.649 27.8638 118.993 27.2055 119.229 26.223H117.667C117.293 26.223 117.048 26.0167 116.93 25.604L113.481 12.6055C113.363 12.1929 113.511 11.9865 113.923 11.9865H116.547C116.94 11.9865 117.185 12.1929 117.284 12.6055L119.818 23.4818H119.936L122.442 12.6055C122.52 12.1929 122.766 11.9865 123.179 11.9865H125.655C126.146 11.9865 126.342 12.2027 126.244 12.635L122.648 27.0188C122.216 28.6498 121.548 29.8877 120.644 30.7327C119.74 31.5776 118.512 32.0001 116.959 32.0001Z" fill="#1A9C73"/>
<path d="M16.1017 1.84229H19.5217L27.6328 9.95494V25.6173C27.6328 26.7305 26.7306 27.633 25.6176 27.633H9.95815L1.84216 19.5154V16.0948L10.9598 25.2142H18.3976C19.3287 23.9671 20.4382 22.6827 21.6944 21.4263C22.861 20.2594 24.0518 19.2191 25.2145 18.3307V10.9568L16.1017 1.84229Z" fill="#1A9C73"/>
<path d="M8.11189 1.84229H11.5318L22.2812 12.594C21.6384 13.0195 20.9749 13.5015 20.3015 14.0346L8.11189 1.84229Z" fill="#1A9C73"/>
<path d="M1.84216 3.55274V1.84229H3.55204L17.8626 16.1558C17.6194 16.3868 17.3765 16.6234 17.1345 16.8654C16.7994 17.2006 16.4747 17.5374 16.161 17.8745L1.84216 3.55274Z" fill="#1A9C73"/>
<path d="M1.84216 11.5342V8.11354L14.0651 20.339C13.5371 21.023 13.0632 21.695 12.6491 22.3435L1.84216 11.5342Z" fill="#1A9C73"/>
</svg>
